<svg width="16" height="16" viewBox="0 0 16 16" fill="none" xmlns="http://www.w3.org/2000/svg">
<path d="M15.5635 11.7424L13.3306 9.50954C12.5332 8.71209 11.1775 9.0311 10.8585 10.0678C10.6193 10.7855 9.82186 11.1842 9.10416 11.0247C7.50927 10.626 5.35617 8.5526 4.95744 6.87797C4.71821 6.16024 5.19668 5.36279 5.91438 5.12359C6.95106 4.80461 7.27004 3.44895 6.47259 2.65151L4.23974 0.418659C3.60179 -0.139553 2.64485 -0.139553 2.08664 0.418659L0.571493 1.93381C-0.943654 3.5287 0.730982 7.75516 4.47898 11.5032C8.22697 15.2511 12.4534 17.0056 14.0483 15.4106L15.5635 13.8955C16.1217 13.2575 16.1217 12.3006 15.5635 11.7424Z" fill="white"/>
</svg>
